<?xml version="1.0" standalone="no"?>
<!DOCTYPE svg PUBLIC "-//W3C//DTD SVG 20010904//EN"
 "http://www.w3.org/TR/2001/REC-SVG-20010904/DTD/svg10.dtd">
<svg version="1.0" xmlns="http://www.w3.org/2000/svg"
 width="300.000000pt" height="307.000000pt" viewBox="0 0 300.000000 307.000000"
 preserveAspectRatio="xMidYMid meet">
<metadata>
Created by potrace 1.10, written by Peter Selinger 2001-2011
</metadata>
<g transform="translate(0.000000,307.000000) scale(0.100000,-0.100000)"
fill="#000000" stroke="none">
<path d="M2500 2754 c-25 -8 -54 -16 -65 -19 -11 -2 -30 -6 -41 -9 -12 -2 -42
-11 -68 -20 -25 -9 -60 -18 -77 -21 -17 -3 -38 -12 -46 -21 -9 -8 -23 -12 -35
-9 -10 4 -49 -2 -86 -14 -37 -11 -79 -22 -94 -25 -15 -2 -31 -7 -36 -10 -5 -3
-19 -7 -33 -10 -25 -5 -119 -30 -179 -47 -19 -5 -42 -11 -50 -13 -8 -2 -35
-10 -60 -17 -25 -7 -49 -13 -55 -15 -5 -1 -30 -7 -55 -14 -25 -7 -53 -14 -62
-15 -10 -2 -23 -7 -29 -10 -5 -4 -20 -8 -32 -10 -33 -5 -66 -13 -75 -19 -5 -3
-20 -7 -35 -10 -15 -4 -39 -8 -54 -12 -15 -3 -30 -7 -35 -10 -8 -5 -22 -9 -77
-20 -13 -3 -32 -9 -43 -15 -10 -5 -18 -7 -18 -5 0 3 -12 1 -27 -5 -26 -10 -37
-13 -81 -23 -9 -2 -37 -9 -62 -16 -25 -7 -53 -14 -62 -15 -10 -2 -23 -7 -30
-11 -6 -4 -21 -8 -32 -10 -19 -3 -76 -17 -116 -29 -8 -2 -33 -9 -55 -15 -51
-14 -106 -29 -125 -35 -27 -8 -94 -25 -120 -31 -14 -3 -29 -7 -35 -8 -5 -2
-23 -6 -40 -10 -16 -4 -41 -12 -55 -17 -14 -5 -35 -11 -47 -14 -13 -3 -32 -7
-43 -9 -29 -7 -78 -44 -91 -69 -13 -24 -16 -72 -5 -104 4 -12 9 -31 11 -42 3
-12 7 -30 10 -42 2 -11 7 -29 10 -39 3 -10 8 -28 10 -39 3 -12 7 -30 9 -41 3
-11 7 -24 10 -28 3 -5 7 -21 10 -36 7 -37 6 -37 48 -24 30 9 45 8 85 -7 37
-14 84 -20 200 -22 l152 -4 -13 38 c-31 89 -31 91 16 103 66 17 241 64 483
130 121 32 398 107 615 165 217 58 405 109 418 115 27 12 22 23 72 -162 21
-78 41 -150 44 -159 6 -13 -38 -27 -266 -89 -150 -40 -330 -87 -400 -104 -70
-17 -128 -33 -128 -36 0 -3 312 -4 692 -2 477 2 705 0 730 -8 20 -6 46 -22 57
-36 l20 -26 25 28 c20 24 24 38 22 84 -3 54 -12 105 -22 122 -3 4 -7 16 -9 25
-5 20 -24 92 -29 108 -1 6 -6 26 -10 45 l-7 35 -57 0 c-166 0 -248 190 -136
315 19 21 46 41 60 44 22 6 25 11 21 34 -10 52 -18 86 -23 94 -5 8 -9 22 -20
77 -3 13 -10 34 -16 45 -6 12 -10 22 -9 24 1 1 -1 17 -5 35 -20 94 -99 127
-214 91z m165 -56 c22 -38 69 -199 82 -285 4 -27 1 -34 -29 -54 -74 -48 -110
-147 -84 -232 28 -93 91 -148 188 -162 38 -6 48 -12 57 -34 18 -47 71 -257 71
-282 0 -43 -18 -50 -62 -28 -34 17 -62 20 -201 22 l-162 2 -22 29 c-13 17 -23
42 -23 56 0 34 -29 61 -56 54 -16 -4 -23 0 -27 15 -6 24 0 31 25 31 10 0 18
-6 18 -14 0 -16 18 -31 27 -22 3 3 -2 17 -11 30 -9 14 -16 36 -16 50 0 14 -5
28 -11 32 -9 5 -10 -1 -5 -20 3 -14 2 -26 -3 -26 -5 0 -16 -3 -24 -6 -9 -3
-16 3 -20 16 -4 16 1 23 18 30 33 13 37 25 21 64 -8 19 -12 36 -10 39 3 2 -1
17 -7 33 -7 16 -13 42 -15 59 -1 16 -7 31 -13 33 -6 2 -8 14 -5 28 4 15 0 29
-10 39 -8 9 -13 22 -9 30 3 9 -1 22 -8 31 -7 9 -12 29 -11 44 1 16 -2 31 -8
35 -5 3 -10 18 -10 33 0 15 -7 35 -14 45 -8 10 -12 27 -9 38 3 11 -2 28 -11
38 -9 10 -14 20 -11 23 3 3 -2 33 -11 68 -9 34 -12 66 -7 70 4 4 35 14 68 23
134 34 259 68 262 71 11 10 74 -23 88 -46z m-440 -94 c0 -10 -8 -20 -18 -22
-22 -4 -35 27 -16 39 20 12 34 5 34 -17z m-56 -26 c7 -24 19 -55 26 -71 8 -15
12 -34 8 -43 -3 -8 2 -23 12 -34 14 -15 15 -23 6 -33 -9 -11 -8 -17 4 -27 8
-7 15 -24 15 -39 0 -15 7 -36 15 -48 10 -14 11 -24 5 -28 -6 -4 -5 -17 5 -35
8 -16 15 -40 15 -55 0 -14 5 -25 11 -25 7 0 9 -9 5 -23 -3 -14 1 -32 9 -43 8
-10 15 -31 15 -46 0 -15 5 -30 11 -34 6 -3 9 -14 6 -24 -2 -9 1 -26 7 -36 6
-10 11 -31 12 -46 1 -15 7 -34 14 -42 6 -9 10 -21 7 -28 -2 -7 2 -26 10 -41 8
-15 11 -32 7 -38 -3 -6 1 -18 10 -27 20 -23 10 -59 -17 -64 -21 -4 -467 -3
-622 1 -45 1 -65 5 -55 10 15 9 163 52 190 56 8 1 22 5 30 8 8 3 38 10 65 17
28 6 59 16 70 20 11 5 42 13 69 20 65 15 103 35 111 59 3 11 -8 73 -26 138
-60 225 -64 231 -156 209 -32 -8 -114 -30 -183 -49 -122 -34 -175 -48 -195
-52 -5 -2 -55 -15 -110 -30 -55 -15 -138 -38 -185 -51 -47 -12 -112 -30 -145
-39 -78 -22 -141 -38 -241 -64 -44 -11 -92 -24 -105 -29 -13 -6 -49 -15 -79
-22 -118 -26 -253 -69 -272 -87 -17 -15 -19 -26 -14 -64 7 -54 7 -54 -113 -58
-55 -2 -90 4 -149 23 -42 14 -90 25 -107 23 l-29 -2 -38 130 c-39 135 -46 192
-27 227 14 27 77 53 173 73 44 9 82 18 86 20 3 2 57 17 120 34 63 17 174 46
245 66 210 57 399 107 420 111 11 2 31 8 45 13 25 10 117 35 255 71 39 10 131
35 205 55 74 20 194 53 265 72 72 19 150 40 175 48 82 24 95 21 109 -27z m79
-46 c3 -18 -2 -22 -22 -22 -19 0 -26 5 -26 19 0 36 43 38 48 3z m20 -73 c3
-17 -23 -33 -39 -23 -5 3 -9 14 -9 25 0 15 6 20 22 17 13 -2 24 -10 26 -19z
m20 -70 c3 -17 -23 -33 -39 -23 -5 3 -9 14 -9 25 0 15 6 20 22 17 13 -2 24
-10 26 -19z m17 -75 c0 -12 -8 -20 -22 -22 -17 -3 -23 2 -23 16 0 20 16 33 35
28 6 -2 10 -11 10 -22z m20 -65 c8 -24 7 -26 -20 -31 -23 -4 -34 30 -13 43 20
13 26 11 33 -12z m19 -75 c8 -20 8 -19 -21 -28 -20 -6 -23 -4 -23 18 0 19 5
26 19 26 10 0 22 -7 25 -16z m20 -71 c4 -9 1 -20 -6 -25 -24 -14 -38 -8 -38
17 0 29 34 36 44 8z m20 -69 c8 -21 -1 -34 -25 -34 -34 0 -23 45 12 49 4 1 10
-6 13 -15z m16 -63 c0 -5 3 -16 6 -24 8 -23 -34 -29 -46 -7 -8 15 -6 21 7 29
23 13 33 14 33 2z m63 -230 c6 -23 0 -31 -24 -31 -21 0 -34 31 -17 42 21 13
35 9 41 -11z m20 -70 c3 -11 2 -22 -1 -25 -6 -7 -42 -8 -42 -2 0 2 -3 11 -6
19 -5 13 4 20 37 26 4 0 9 -8 12 -18z"/>
<path d="M1755 1998 c-38 -11 -71 -21 -73 -23 -1 -1 0 -10 4 -19 5 -13 14 -15
39 -10 31 5 32 4 38 -33 10 -57 27 -113 35 -113 29 1 31 18 12 88 -11 39 -20
73 -20 76 0 2 13 6 29 9 24 5 28 10 24 27 -3 11 -8 19 -12 19 -3 -1 -37 -10
-76 -21z"/>
<path d="M1595 1950 c-33 -9 -60 -21 -60 -26 0 -5 11 -48 24 -97 19 -69 27
-86 40 -83 9 3 36 10 61 17 55 15 62 20 50 38 -7 12 -15 13 -49 2 -23 -6 -46
-9 -51 -6 -20 12 -9 35 20 42 17 4 30 11 30 16 0 4 0 14 0 22 0 11 -5 12 -26
5 -38 -15 -54 -12 -54 9 0 15 10 21 41 26 39 7 61 29 43 44 -5 4 -36 0 -69 -9z"/>
<path d="M1464 1920 c-11 -4 -31 -28 -44 -53 -26 -50 -40 -52 -40 -6 0 25 -4
29 -26 29 -19 0 -25 -4 -20 -15 3 -9 16 -54 28 -100 12 -47 24 -85 28 -85 3 0
11 4 19 9 11 7 11 15 2 41 -17 51 -15 52 42 17 48 -30 80 -36 99 -18 4 4 -19
20 -52 36 -33 17 -60 34 -60 39 0 5 14 31 30 58 39 63 39 66 -6 48z"/>
<path d="M1240 1859 c-79 -17 -108 -113 -51 -170 22 -21 39 -29 66 -29 47 0
99 26 91 46 -3 9 -6 21 -6 27 0 6 -10 1 -23 -11 -27 -26 -79 -29 -101 -6 -48
47 15 135 74 104 26 -14 31 -11 24 17 -7 26 -28 32 -74 22z"/>
<path d="M1068 1815 c-9 -9 47 -195 59 -195 23 0 23 20 1 109 -17 67 -27 91
-39 91 -9 0 -18 -2 -21 -5z"/>
<path d="M953 1781 c-55 -14 -63 -19 -63 -39 0 -23 6 -24 56 -5 6 2 17 -24 25
-59 12 -52 18 -64 37 -66 12 -2 22 0 22 5 0 9 -24 88 -35 115 -5 12 1 18 25
23 22 5 30 12 28 23 -4 22 -20 22 -95 3z"/>
<path d="M216 1559 c-51 -40 -56 -63 -56 -252 l0 -174 50 -5 c130 -13 204
-161 139 -279 -29 -52 -92 -91 -150 -93 l-39 -1 0 -178 c0 -115 4 -186 12
-200 12 -23 54 -67 66 -68 4 0 494 -2 1089 -4 1057 -3 1081 -3 1086 16 7 25
37 25 37 -1 0 -20 6 -20 210 -18 l209 3 35 38 34 38 2 174 c0 97 3 181 6 188
3 9 -7 14 -32 15 -64 5 -130 55 -153 115 -25 66 -4 165 45 208 33 29 86 51
113 47 l26 -4 -3 180 c-3 188 -8 211 -52 251 -22 20 -39 20 -1334 23 l-1313 2
-27 -21z m2164 -8 c13 -1 15 -19 15 -107 0 -58 3 -108 7 -110 5 -3 5 -11 1
-17 -8 -14 -14 -525 -6 -574 5 -28 9 -33 34 -33 22 0 29 -5 29 -20 0 -15 -7
-20 -25 -20 -16 0 -25 6 -25 15 0 8 -4 15 -8 15 -5 0 -8 -81 -7 -179 1 -173 0
-180 -20 -185 -37 -10 -2092 -7 -2119 4 -14 5 -35 24 -46 42 -18 29 -20 51
-20 179 0 161 -2 157 67 179 117 36 177 184 121 298 -23 49 -88 101 -146 117
l-37 11 -3 157 c-2 147 -1 160 18 187 12 17 34 33 51 37 22 6 2046 10 2119 4z
m465 -4 c11 -2 30 -19 43 -37 20 -31 22 -44 22 -186 l0 -153 -60 -32 c-88 -47
-130 -112 -130 -202 0 -81 71 -175 151 -202 l34 -12 3 -162 3 -162 -35 -35
-34 -34 -175 0 c-97 0 -181 2 -189 5 -10 4 -12 47 -10 213 1 114 2 212 2 217
0 6 -1 35 -3 65 -2 30 0 65 4 76 4 12 5 25 1 28 -8 8 -5 203 3 216 3 6 1 10
-6 10 -7 0 -9 8 -4 23 3 12 6 29 6 37 0 8 -2 86 -3 172 -3 150 -2 157 17 162
23 5 330 0 360 -7z m-390 -32 c0 -13 -8 -21 -22 -23 -19 -3 -23 1 -23 23 0 22
4 26 23 23 14 -2 22 -10 22 -23z m5 -75 c0 -15 -7 -20 -25 -20 -18 0 -25 5
-25 20 0 15 7 20 25 20 18 0 25 -5 25 -20z m-5 -75 c0 -13 -8 -21 -22 -23 -19
-3 -23 1 -23 23 0 22 4 26 23 23 14 -2 22 -10 22 -23z m5 -75 c0 -15 -7 -20
-25 -20 -18 0 -25 5 -25 20 0 15 7 20 25 20 18 0 25 -5 25 -20z m-5 -75 c0
-13 -8 -21 -22 -23 -19 -3 -23 1 -23 23 0 22 4 26 23 23 14 -2 22 -10 22 -23z
m5 -75 c0 -15 -7 -20 -25 -20 -18 0 -25 5 -25 20 0 15 7 20 25 20 18 0 25 -5
25 -20z m-5 -75 c0 -13 -8 -21 -22 -23 -19 -3 -23 1 -23 23 0 22 4 26 23 23
14 -2 22 -10 22 -23z m5 -75 c0 -15 -7 -20 -25 -20 -18 0 -25 5 -25 20 0 15 7
20 25 20 18 0 25 -5 25 -20z m-5 -75 c0 -13 -8 -21 -22 -23 -19 -3 -23 1 -23
23 0 22 4 26 23 23 14 -2 22 -10 22 -23z m5 -75 c0 -15 -7 -20 -25 -20 -18 0
-25 5 -25 20 0 15 7 20 25 20 18 0 25 -5 25 -20z m-5 -75 c0 -13 -8 -21 -22
-23 -19 -3 -23 1 -23 23 0 22 4 26 23 23 14 -2 22 -10 22 -23z m3 -152 c3 -19
-1 -23 -22 -23 -21 0 -26 5 -26 26 0 21 4 25 23 22 14 -2 23 -11 25 -25z m0
-75 c-2 -15 -11 -24 -25 -26 -19 -3 -23 1 -23 22 0 21 5 26 26 26 21 0 25 -4
22 -22z m0 -75 c3 -19 -1 -23 -22 -23 -21 0 -26 5 -26 26 0 21 4 25 23 22 14
-2 23 -11 25 -25z m2 -71 c0 -25 -7 -31 -31 -25 -29 8 -25 43 6 43 18 0 25 -5
25 -18z"/>
<path d="M618 1143 c-30 -8 -40 -70 -36 -224 2 -120 6 -148 20 -162 15 -16 82
-17 832 -17 l815 0 15 22 c22 31 23 334 2 364 -14 19 -35 19 -823 20 -444 1
-816 0 -825 -3z m1635 -198 l-2 -175 -821 -3 -820 -2 0 178 0 177 823 0 822 0
-2 -175z"/>
<path d="M940 1030 c0 -16 7 -20 30 -20 l30 0 0 -85 c0 -78 2 -85 20 -85 18 0
20 7 20 85 l0 85 30 0 c23 0 30 4 30 20 0 18 -7 20 -80 20 -73 0 -80 -2 -80
-20z"/>
<path d="M1125 947 c0 -92 2 -102 18 -102 16 0 18 11 20 103 2 96 1 102 -18
102 -19 0 -20 -7 -20 -103z"/>
<path d="M1229 1021 c-50 -51 -36 -136 29 -167 52 -24 106 -10 110 30 3 28 3
28 -19 12 -29 -20 -58 -20 -87 0 -28 19 -30 74 -4 97 20 19 77 23 87 7 11 -18
25 -10 25 14 0 28 -16 36 -72 36 -30 0 -46 -7 -69 -29z"/>
<path d="M1402 948 c3 -89 5 -103 21 -106 14 -3 17 4 17 42 0 25 2 46 5 46 2
0 23 -20 46 -45 27 -29 50 -45 65 -45 13 0 24 4 24 8 0 4 -22 29 -49 56 l-49
48 44 40 c49 46 54 58 22 58 -13 0 -41 -18 -65 -42 l-43 -42 0 42 c0 36 -3 42
-20 42 -20 0 -21 -5 -18 -102z"/>
<path d="M1610 948 l0 -103 67 1 c62 2 68 4 71 24 4 22 1 22 -47 18 -48 -5
-51 -4 -51 18 0 21 5 24 35 24 28 0 35 4 35 20 0 17 -7 20 -40 20 -33 0 -40 3
-40 20 0 17 7 20 50 20 43 0 50 3 50 20 0 18 -7 20 -65 20 l-65 0 0 -102z"/>
<path d="M1760 1030 c0 -16 7 -20 36 -20 l36 0 -3 -82 c-4 -78 -3 -83 16 -83
19 0 20 5 16 83 l-3 82 36 0 c29 0 36 4 36 20 0 18 -7 20 -85 20 -78 0 -85 -2
-85 -20z"/>
</g>
</svg>
