<?xml version="1.0" standalone="no"?>
<!DOCTYPE svg PUBLIC "-//W3C//DTD SVG 20010904//EN"
 "http://www.w3.org/TR/2001/REC-SVG-20010904/DTD/svg10.dtd">
<svg version="1.0" xmlns="http://www.w3.org/2000/svg"
 width="494.000000pt" height="505.000000pt" viewBox="0 0 494.000000 505.000000"
 preserveAspectRatio="xMidYMid meet">

<g transform="translate(0.000000,505.000000) scale(0.100000,-0.100000)"
fill="#000000" stroke="none">
<path d="M2898 3286 c-121 -32 -128 -37 -112 -79 4 -12 12 -13 37 -6 59 17 63
14 81 -58 36 -144 47 -173 64 -173 43 1 44 12 13 126 -17 60 -31 116 -31 124
0 10 16 20 44 28 39 10 43 14 38 37 -2 14 -7 27 -11 29 -3 1 -59 -11 -123 -28z"/>
<path d="M2622 3205 c-46 -13 -86 -26 -89 -29 -7 -7 66 -287 78 -300 5 -5 32
-2 66 7 32 9 78 21 101 27 41 11 43 13 37 38 -4 15 -8 28 -10 30 -2 2 -34 -6
-73 -17 -38 -12 -72 -21 -75 -21 -3 0 -10 13 -15 29 -12 35 -6 42 56 60 44 12
49 20 32 51 -9 17 -13 17 -61 3 -28 -8 -53 -13 -55 -10 -3 2 -6 17 -7 32 -2
26 2 29 68 47 39 11 71 21 73 23 7 7 -19 55 -30 54 -7 0 -51 -11 -96 -24z"/>
<path d="M2404 3153 c-14 -3 -36 -30 -64 -79 -24 -41 -46 -71 -50 -67 -4 4
-13 29 -20 56 -13 47 -28 57 -58 38 -11 -7 -8 -31 18 -127 50 -191 48 -187 79
-179 14 4 27 8 28 9 2 1 -5 28 -14 59 -9 32 -14 60 -11 63 3 3 43 -15 88 -40
77 -43 85 -45 121 -36 22 6 39 13 39 15 0 2 -43 28 -95 57 -52 29 -95 58 -95
65 0 7 13 35 30 63 16 27 36 64 45 80 17 33 14 34 -41 23z"/>
<path d="M2037 3056 c-95 -26 -149 -115 -125 -204 27 -100 142 -149 243 -103
54 24 64 39 53 79 l-9 33 -30 -30 c-95 -95 -242 -6 -188 113 18 39 67 60 128
54 l52 -5 -7 31 c-3 17 -7 32 -8 32 -10 10 -72 10 -109 0z"/>
<path d="M1772 2981 c-11 -7 -6 -36 24 -152 20 -79 40 -148 45 -152 10 -12 49
1 49 16 1 7 -16 76 -37 154 -38 144 -46 157 -81 134z"/>
<path d="M1582 2928 c-109 -30 -113 -32 -110 -57 3 -27 8 -28 69 -16 l35 7 25
-99 c25 -97 25 -98 57 -101 18 -2 32 0 32 3 0 3 -11 46 -25 95 -14 49 -25 96
-25 104 0 9 16 19 40 26 46 12 50 18 39 48 -10 26 2 27 -137 -10z"/>
<path d="M2094 1724 c-36 -8 -102 -72 -114 -110 -14 -41 -7 -105 16 -144 38
-63 139 -96 218 -70 33 11 36 15 36 50 l0 38 -37 -19 c-45 -23 -72 -24 -119
-4 -69 29 -79 119 -18 176 32 30 105 32 147 5 l27 -18 0 35 c0 26 -6 39 -20
47 -24 13 -105 21 -136 14z"/>
<path d="M1550 1690 c0 -29 1 -30 50 -30 l50 0 0 -135 0 -135 30 0 30 0 0 135
0 135 50 0 c49 0 50 1 50 30 l0 30 -130 0 -130 0 0 -30z"/>
<path d="M1854 1707 c-3 -8 -4 -81 -2 -163 l3 -149 28 -3 27 -3 0 165 0 166
-25 0 c-14 0 -28 -6 -31 -13z"/>
<path d="M2310 1555 l0 -165 30 0 30 0 0 64 c0 36 4 67 8 70 5 3 40 -26 77
-64 62 -62 74 -70 107 -70 21 0 38 3 38 7 0 4 -36 44 -80 88 l-80 80 70 70
c38 38 70 73 70 77 0 5 -17 8 -38 8 -33 0 -45 -8 -97 -60 -33 -33 -63 -60 -67
-60 -4 0 -8 27 -8 60 l0 60 -30 0 -30 0 0 -165z"/>
<path d="M2650 1555 l0 -165 110 0 110 0 0 35 0 35 -80 0 -80 0 0 35 0 35 60
0 60 0 0 30 0 30 -60 0 -60 0 0 35 0 35 80 0 80 0 0 30 0 30 -110 0 -110 0 0
-165z"/>
<path d="M2910 1690 c0 -29 1 -30 50 -30 l50 0 0 -135 0 -135 30 0 30 0 0 135
0 135 50 0 c49 0 50 1 50 30 l0 30 -130 0 -130 0 0 -30z"/>
</g>
</svg>
